/* XPM */
static char *result[] = {
/* columns rows colors chars-per-pixel */
"16 16 161 2 ",
"   c #162A1E2C5054",
".  c #1B1A1FF04ED6",
"X  c #1BA020E851E4",
"o  c #17AA225E58BC",
"O  c #196022EC5AA6",
"+  c #1CCA26885FA6",
"@  c #1D5428885E6E",
"#  c #38942D544E7C",
"$  c #227A27D656AC",
"%  c #25DC2B925C1C",
"&  c #274C2CCC5D58",
"*  c #366E3032532E",
"=  c #182024D26022",
"-  c #1E9E2AAC62F4",
";  c #279E2E4A61B6",
":  c #230C2DA66620",
">  c #29462EE06020",
",  c #20522D066868",
"<  c #20B62D6E68C6",
"1  c #21F02D506892",
"2  c #21922E866B02",
"3  c #25062FA46A44",
"4  c #22522EEE6DD6",
"5  c #22142FBE6F8A",
"6  c #2BA82FD26920",
"7  c #2C0A324E6910",
"8  c #333436C26B64",
"9  c #374237B26838",
"0  c #36E437AE6B34",
"q  c #232A30BC7016",
"w  c #236431547260",
"e  c #255433D67799",
"r  c #259233EA78DE",
"t  c #275E36987DAC",
"y  c #27C036BA7DBE",
"u  c #336C37CC7236",
"i  c #359A3AEE779E",
"p  c #39F23D4C791E",
"a  c #3B263D247ACE",
"s  c #38503DB27D4C",
"d  c #47AE34EE4E50",
"f  c #485635444B4C",
"g  c #4C9A392E4B44",
"h  c #4D823C9456D0",
"j  c #5D0E3FF25F90",
"k  c #756646284CC4",
"l  c #6D0643105284",
"z  c #5B204696638A",
"x  c #42A442607FA4",
"c  c #50D0449E74C6",
"v  c #5CBE4B307976",
"b  c #66C442D06082",
"n  c #6BC04A4E6A2A",
"m  c #72AA4BD66904",
"M  c #761C502A621C",
"N  c #706851B66EB2",
"B  c #75EE53BE7EDC",
"V  c #80F948983B84",
"C  c #EC8B737E39FE",
"Z  c #9F055366463E",
"A  c #844D4E485778",
"S  c #8DDB503E575A",
"D  c #8D4353445AAC",
"F  c #90A95150513A",
"G  c #AA1B59C4507A",
"H  c #C02966BE4AAA",
"J  c #A3D561A65DA4",
"K  c #B27B640E5CA0",
"L  c #B87B67E4590A",
"P  c #80A3504A6006",
"I  c #85C1575C67B0",
"U  c #972957A461CA",
"Y  c #9B835BE6673A",
"T  c #90CD5C5E6A16",
"R  c #8D9D5D2270E4",
"E  c #8ADD5B7E73F4",
"W  c #85E15C20786C",
"Q  c #93ED5FBA791E",
"!  c #9637602E7264",
"~  c #987B5FFA701E",
"^  c #9E17637871CE",
"/  c #99E563E07B3C",
"(  c #B87B6642668A",
")  c #BFEB6F626EDA",
"_  c #AA17641E7160",
"`  c #A91F668A74D2",
"'  c #ADE569AC7724",
"]  c #A89D6974792E",
"[  c #B28367DA7066",
"{  c #B33F6B947920",
"}  c #B6F56DAC7D74",
"|  c #BC7970C07DA8",
" . c #C3ED671447B0",
".. c #C58B69A04E66",
"X. c #C9C7692E4910",
"o. c #DD2F70664794",
"O. c #D67B6BF45198",
"+. c #D20F6EE455D2",
"@. c #DECB724C4FDC",
"#. c #E2FF7186412C",
"$. c #C33B6FA06C04",
"%. c #CE91766074F4",
"&. c #FFFF87CD3276",
"*. c #FFFF8E874950",
"=. c #FFFF8A7759D0",
"-. c #FFFF8B156630",
";. c #FFFF891769A6",
":. c #FFFF91DD6BCA",
">. c #FD4185E97678",
",. c #FFFF8D837368",
"<. c #FFFF8F6F722E",
"1. c #FFFF9699721A",
"2. c #FFFFA7DB76C6",
"3. c #FFFFA24D7CEC",
"4. c #FFFFA98D7FCE",
"5. c #FFFFAC4F7C14",
"6. c #289437F8807B",
"7. c #28F838928171",
"8. c #3B2A4110871B",
"9. c #37F641508B9D",
"0. c #318843A29A8B",
"q. c #407840AE80C3",
"w. c #433E428A8429",
"e. c #414A44468BF5",
"r. c #483A47D88D57",
"t. c #5A624C06806B",
"y. c #61DE52228C31",
"u. c #7B725B168B47",
"i. c #7F625D4E8ECF",
"p. c #69EA56A892CF",
"a. c #85A55D368573",
"s. c #8CB55FBC838D",
"d. c #89CD61068E07",
"f. c #9425636880D9",
"g. c #91F962A086E3",
"h. c #9B73651E819F",
"j. c #9B2567008575",
"k. c #A8C56D088BEF",
"l. c #AAE16D528B25",
"z. c #A8CB6CA88CE3",
"x. c #B07F6E0082B9",
"c. c #B5D16FB2859D",
"v. c #B62970F0864D",
"b. c #BF79710480A5",
"n. c #B8CB71EA87CD",
"m. c #BCDB72A8874B",
"M. c #BB9D73AC8ACF",
"N. c #BE3B73D88971",
"B. c #C5ED76AA8555",
"V. c #FFFFA1AFA6BD",
"C. c #FFFFA487A6DB",
"Z. c #FFFFAB9BA8B1",
"A. c #FFFFBF7BC8EB",
"S. c #FFFFC253C9CB",
"D. c #FFFFC821DFD3",
"F. c #FFFFE64BDA67",
"G. c #FFFFD6D9ECA9",
"H. c #FFFFD8B1FFFF",
"J. c #FFFFEAA9F7B9",
"K. c white",
"L. c None",
/* pixels */
"L.L.L.L.L.L.L.L.L.L.L.L.L.L.L.L.",
"L.L.L.L.L.:.) I ~ V.J.L.L.L.L.L.",
"L.L.L.5.J i 7.v ! 9.r.C.K.L.L.L.",
"L.L.2.M s 8./ %.h.c.B.e.| F.L.L.",
"L.L.L p t.] i.l.p.z.j.w.x $.L.L.",
"L.=.8 6.^ g.a.m.n.b.f.q.t 9 *.L.",
"L.@.0 y R { 0.M.v.} W a e 2 o.L.",
"L...3 e T s.d.N.x.` N u q : H L.",
"L.+., w c ' u.k.y.E z 7 < >  .L.",
"L.,.1 5 r [ B >.Q K h ; - & C L.",
"L.D.P 4 n b ( _ Y D f % @ g &.L.",
"L.L.G.m O.G 6 U S F V $ * #.L.L.",
"L.L.H.S.j + = l Z O o d X.L.L.L.",
"L.L.L.L.A.A # X   . k -.L.L.L.L.",
"L.L.L.L.L.Z.1.;.<.3.4.L.L.L.L.L.",
"L.L.L.L.L.L.L.L.L.L.L.L.L.L.L.L."
};
