/* XPM */
static char *result[] = {
/* columns rows colors chars-per-pixel */
"32 32 198 2 ",
"   c #6C433C",
".  c #7C4B3D",
"X  c #78473B",
"o  c #131C4E",
"O  c #121E54",
"+  c #162157",
"@  c #1B2254",
"#  c #16225B",
"$  c #19245B",
"%  c #1D285E",
"&  c #25254D",
"*  c #34294B",
"=  c #3B334F",
"-  c #2D2B54",
";  c #292C5B",
":  c #33315A",
">  c #3B3152",
",  c #362D5C",
"<  c #1A2663",
"1  c #1E2A62",
"2  c #1D2B6A",
"3  c #212B65",
"4  c #222E6B",
"5  c #312E62",
"6  c #2D3162",
"7  c #23306F",
"8  c #2D326F",
"9  c #3C3969",
"0  c #363365",
"q  c #212D71",
"w  c #243273",
"e  c #2C3575",
"r  c #26357B",
"t  c #29367D",
"y  c #2A387F",
"u  c #3B3A73",
"i  c #353879",
"p  c #45334F",
"a  c #4E394C",
"s  c #533D4C",
"d  c #533946",
"f  c #413752",
"g  c #483A56",
"h  c #543B5D",
"j  c #453D6B",
"k  c #453C74",
"l  c #5C4459",
"z  c #63424B",
"x  c #794B41",
"c  c #784649",
"v  c #7E5047",
"b  c #6C4B59",
"n  c #794B58",
"m  c #795059",
"M  c #4C4268",
"N  c #58456B",
"B  c #4F4374",
"V  c #4A4279",
"C  c #574677",
"Z  c #694C68",
"A  c #644F7E",
"S  c #71527E",
"D  c #765165",
"F  c #814A3B",
"G  c #874D35",
"H  c #B35E2D",
"J  c #AF5C37",
"K  c #B95E35",
"L  c #FF7919",
"P  c #C7663A",
"I  c #D46B3F",
"U  c #FA7939",
"Y  c #98564A",
"T  c #8C545F",
"R  c #8F5553",
"E  c #A55843",
"W  c #A35D5D",
"Q  c #AD6044",
"!  c #BA6A5A",
"~  c #B4644E",
"^  c #824F64",
"/  c #8A576B",
"(  c #925A6A",
")  c #8B5E79",
"_  c #A75F6C",
"`  c #99637B",
"'  c #AA646F",
"]  c #BB707B",
"[  c #AF6978",
"{  c #D66D46",
"}  c #D97149",
"|  c #C96D59",
" . c #D87558",
".. c #E8754D",
"X. c #FF7E40",
"o. c #F8784A",
"O. c #E27956",
"+. c #EB7A58",
"@. c #FF7F51",
"#. c #F77D59",
"$. c #C56E64",
"%. c #DC7966",
"&. c #D97A74",
"*. c #E77B61",
"=. c #FF9A37",
"-. c #FF8B44",
";. c #FF8A4D",
":. c #FF9344",
">. c #FF9E42",
",. c #FF9A4A",
"<. c #FF974C",
"1. c #FF8355",
"2. c #FE855C",
"3. c #FF895C",
"4. c #FF9C52",
"5. c #FF905B",
"6. c #FFA54A",
"7. c #FFA55A",
"8. c #FF8B62",
"9. c #F1826A",
"0. c #FF8F6B",
"q. c #FB8369",
"w. c #FF9365",
"e. c #FF936C",
"r. c #FF9B6A",
"t. c #FF9D67",
"y. c #E3807D",
"u. c #FF8B73",
"i. c #F78678",
"p. c #FF9C73",
"a. c #FF9D7A",
"s. c #FF9473",
"d. c #FFA565",
"f. c #FFA96B",
"g. c #FFB26C",
"h. c #FFA174",
"j. c #FFA27F",
"k. c #FFB77A",
"l. c #2A3A84",
"z. c #2D3D8B",
"x. c #323F8C",
"c. c #393F88",
"v. c #2E3F91",
"b. c #2F408F",
"n. c #3A418D",
"m. c #394088",
"M. c #2F4094",
"N. c #334295",
"B. c #3B4393",
"V. c #33449A",
"C. c #3F479C",
"Z. c #3F489D",
"A. c #45448C",
"S. c #4D468B",
"D. c #4E4987",
"F. c #53478B",
"G. c #544A8F",
"H. c #5A4C86",
"J. c #5F508F",
"K. c #404593",
"L. c #46499C",
"P. c #6B5282",
"I. c #71578E",
"U. c #825B88",
"Y. c #956489",
"T. c #BE758B",
"R. c #FF8F82",
"E. c #F48883",
"W. c #FF9083",
"Q. c #FF879C",
"!. c #FFA987",
"~. c #FFB38A",
"^. c #FFBC8B",
"/. c #FFB381",
"(. c #FFB496",
"). c #FFBD98",
"_. c #DC87B8",
"`. c #FFC788",
"'. c #FFC19C",
"]. c #FFCA98",
"[. c #FFC594",
"{. c #FFD09E",
"}. c #FFC5A1",
"|. c #FFC8A4",
" X c #FFD2A8",
".X c #FFC4BC",
"XX c #FFCFBE",
"oX c #FFD1BD",
"OX c #FFDEB3",
"+X c #FFB1E3",
"@X c #FFD6D3",
"#X c #FFD7C8",
"$X c #FFE8C9",
"%X c #FFEEDB",
"&X c #FFF6DC",
"*X c #FFDBFF",
"=X c #FFFFFF",
"-X c None",
/* pixels */
"-X-X-X-X-X-X-X-X-X-X-X-X-X-X-X-X-X-X-X-X-X-X-X-X-X-X-X-X-X-X-X-X",
"-X-X-X-X-X-X-X-X-X-X-X-X-X-X{.OX$X%X-X-X-X-X-X-X-X-X-X-X-X-X-X-X",
"-X-X-X-X-X-X-X-X-X-X`.]./.w. .|  .e.|.=X=X=X-X-X-X-X-X-X-X-X-X-X",
"-X-X-X-X-X-X-X-X-X[.2.v M e e V i i Y.( O.%X=X=X-X-X-X-X-X-X-X-X",
"-X-X-X-X-X-X-X{.r.c u B t t l.l.z.z.z.F.z.U.q.=X=X-X-X-X-X-X-X-X",
"-X-X-X-X-X-X X..b D r l.l.l.x.+.2.3.x.v.v.A.T.]  X=X-X-X-X-X-X-X",
"-X-X-X-X-X].} b Z l.l.z.z.x.K.3.x.w.A.K.B.C.v.A.` ~.=X-X-X-X-X-X",
"-X-X-X-X^.1.M B y l.z.P.9.0.s.&.v.y.a.a.a.g.H.x.I./ ~.&X-X-X-X-X",
"-X-X-X-Xf.b Z l.l.b.%.9.J.N.V.V.V.N.V.V.V.u.C b.l.) m |.-X-X-X-X",
"-X-X-Xk.J m r l.b.%.` M.J.W.j.u.N.R.j.E.V.u.C z.l.t M Q `.-X-X-X",
"-X-X-X7.M 8 r l.C 9.M.Y.p.P.K.a.V.h.F.p.V.9.C z.l.t u l d.-X-X-X",
"-X-Xh.{ 8 w r l.$.P.B.d.c.V.L.h.V.p.G.p.N.9.B l.y w 7 7 I 6.-X-X",
"-X-Xd.x 9 w r l.O.B.G.8.M.V.Z.a.V.p.G.e.b.9.M l.r w 7 4 X 6.-X-X",
"-X-X4.z l w w l. .n.G.8.V.V.Z.h.V.p.F.e.b. .V r r 7 7 4 z ,.-X-X",
"-X-X<.f 2 w w r ! A n.d.B.V.Z.a.V.e.S.8.b.! M t w 7 4 1 f <.-X-X",
"-X-X<.s 6 7 w r B  .b.Y.j.I.L.h.V.e.S.2.l.W 9 w 7 7 2 6 s :.-X-X",
"-X-X4.= 2 4 w w t | ` x.J.R.!.R.N.i.8.$.r Y 0 w 7 3 3 1 = :.-X-X",
"-X-Xd.z 3 4 7 w r t *.u.H.v.v.v.N.b.z.y w R 6 7 4 3 1 g z =.-X-X",
"-X-X^.. 3 4 4 w r r l.0.P.c.a.E.b.&.1.W 7 v : 4 3 3 % 6   >.-X-X",
"-X-X.X+.4 3 4 w w r ' $.i i._ e.z.3.k } < x ; 4 1 % % : K =.-X-X",
"-X-XQ.#Xn 0 4 q q B 1.4 / #.c.0.t 1.k { O R - 1 % % % = -.L -X-X",
"-X-X-X=X#.N 4 4 8 1., 0 3.8 l.8.7 1.k I o X - 1 % % s G 6.-X-X-X",
"-X-X-X+X=XW / 8 | c @ @.h q e #.< 1.9 I o F - % % s d -.L -X-X-X",
"-X-X-X-X=X.X( ^ @...o.R < q 8 o.# o.5 U K H & @ = - P 6.-X-X-X-X",
"-X-X-X-X-X=X(.^ , 3 % < < < 3 X.c U ; % $ $ $ f a J 7.-X-X-X-X-X",
"-X-X-X-X-X_.=X(.T T 3 O < O # c R c O O @ @ z d P f.-X-X-X-X-X-X",
"-X-X-X-X-X-X-X=X@XE h + - O O O o O O O f o   3.k.-X-X-X-X-X-X-X",
"-X-X-X-X-X-X-X-X*X=Xs.F d d O * o o o * F #.'.d.-X-X-X-X-X-X-X-X",
"-X-X-X-X-X-X-X-X-X] .XoX~.2.{ Y E | 0.).oX^.-X-X-X-X-X-X-X-X-X-X",
"-X-X-X-X-X-X-X-X-X-X-X-X%.a.~.'.'.'.!.@.-X-X-X-X-X-X-X-X-X-X-X-X",
"-X-X-X-X-X-X-X-X-X-X-X-X-X-X-X-X-X-X-X-X-X-X-X-X-X-X-X-X-X-X-X-X",
"-X-X-X-X-X-X-X-X-X-X-X-X-X-X-X-X-X-X-X-X-X-X-X-X-X-X-X-X-X-X-X-X"
};
