/* XPM */
static char *result[] = {
/* columns rows colors chars-per-pixel */
"64 64 234 2 ",
"   c #58383C",
".  c #643E37",
"X  c #6A463D",
"o  c #774936",
"O  c #121B4E",
"+  c #1A1E4E",
"@  c #131E53",
"#  c #191F54",
"$  c #152056",
"%  c #1B2155",
"&  c #16225B",
"*  c #1B255B",
"=  c #1D285E",
"-  c #1C214D",
";  c #3A2D48",
":  c #3C314C",
">  c #272858",
",  c #312B58",
"<  c #3A3358",
"1  c #2A254A",
"2  c #1A2663",
"3  c #1E2A63",
"4  c #1E2B6B",
"5  c #1A2565",
"6  c #1F2E71",
"7  c #212C65",
"8  c #222E6B",
"9  c #2A2D68",
"0  c #332F65",
"q  c #23306E",
"w  c #2B306A",
"e  c #393569",
"r  c #222F73",
"t  c #243274",
"y  c #2B3474",
"u  c #26357B",
"i  c #29367D",
"p  c #2A387E",
"a  c #33397D",
"s  c #383876",
"d  c #49364B",
"f  c #563D43",
"g  c #483957",
"h  c #533856",
"j  c #432F4E",
"k  c #433966",
"l  c #563D65",
"z  c #453D78",
"x  c #503F71",
"c  c #653952",
"v  c #5C4144",
"b  c #5A4459",
"n  c #6A4349",
"m  c #774B45",
"M  c #684758",
"N  c #7B5251",
"B  c #564268",
"V  c #4A4278",
"C  c #554478",
"Z  c #6B4968",
"A  c #764B65",
"S  c #684B79",
"D  c #745277",
"F  c #745173",
"G  c #AD5C1E",
"H  c #B65C1B",
"J  c #B7611D",
"K  c #975628",
"L  c #8A5439",
"P  c #965936",
"I  c #8C4F2F",
"U  c #A65A25",
"Y  c #B55C27",
"T  c #A75938",
"R  c #BC5E37",
"E  c #B96225",
"W  c #BB6633",
"Q  c #CE5C0B",
"!  c #FC6907",
"~  c #FE771A",
"^  c #C76527",
"/  c #D7692B",
"(  c #D87122",
")  c #C86637",
"_  c #D76934",
"`  c #E47625",
"'  c #F77A27",
"]  c #E76E36",
"[  c #EB7039",
"{  c #F97639",
"}  c #E36F24",
"|  c #C36122",
" . c #895648",
".. c #864D59",
"X. c #995857",
"o. c #944E4C",
"O. c #A4585C",
"+. c #B15D4A",
"@. c #B06654",
"#. c #875367",
"$. c #925B6F",
"%. c #AD5C6F",
"&. c #9C6174",
"*. c #AC636B",
"=. c #B7656B",
"-. c #AC6777",
";. c #B86C77",
":. c #BE7167",
">. c #CD6C50",
",. c #E47145",
"<. c #E7734A",
"1. c #FA7A49",
"2. c #EE7956",
"3. c #F87B55",
"4. c #E16E47",
"5. c #C66867",
"6. c #C77278",
"7. c #D5746C",
"8. c #E77B66",
"9. c #F57B64",
"0. c #F37378",
"q. c #FF851F",
"w. c #FF8828",
"e. c #FF9A2B",
"r. c #FF8939",
"t. c #FF9937",
"y. c #FFA42B",
"u. c #FFA82B",
"i. c #FFA639",
"p. c #FFB739",
"a. c #FF854B",
"s. c #FF984A",
"d. c #FF845C",
"f. c #FF895A",
"g. c #FF9758",
"h. c #FFAA44",
"j. c #FFAC4A",
"k. c #FFA443",
"l. c #FFB14B",
"z. c #FFB846",
"x. c #FFA957",
"c. c #FFBB5C",
"v. c #FFB856",
"b. c #FD8868",
"n. c #FF9668",
"m. c #ED8377",
"M. c #FF9776",
"N. c #FFA968",
"B. c #FFBD63",
"V. c #FFB569",
"C. c #FFA678",
"Z. c #FFB477",
"A. c #FFC749",
"S. c #FFC25D",
"D. c #FFCC53",
"F. c #FFD659",
"G. c #FFD24D",
"H. c #FFC463",
"J. c #FFC66C",
"K. c #FFC96B",
"L. c #FFC965",
"P. c #FFD669",
"I. c #FFC775",
"U. c #FFD078",
"Y. c #FFE271",
"T. c #293780",
"R. c #2A3984",
"E. c #2D3D8B",
"W. c #313E8B",
"Q. c #373D84",
"!. c #2E3F90",
"~. c #313F91",
"^. c #443F81",
"/. c #3C418D",
"(. c #35408E",
"). c #2F4092",
"_. c #314195",
"`. c #3B4493",
"'. c #33449A",
"]. c #3A4598",
"[. c #444184",
"{. c #44438C",
"}. c #4B4488",
"|. c #574A89",
" X c #4C4B9C",
".X c #484793",
"XX c #534B94",
"oX c #5A4D96",
"OX c #5F509A",
"+X c #634E8B",
"@X c #6D5286",
"#X c #785688",
"$X c #645094",
"%X c #765797",
"&X c #865A8B",
"*X c #925784",
"=X c #B67088",
"-X c #B06B88",
";X c #916194",
":X c #C67485",
">X c #C87586",
",X c #DA7D87",
"<X c #E07F8C",
"1X c #FB8B85",
"2X c #FF9487",
"3X c #FF8B91",
"4X c #FFA787",
"5X c #FFBA8A",
"6X c #FFB599",
"7X c #FFAE97",
"8X c #FF91A7",
"9X c #FFB9AB",
"0X c #FFC886",
"qX c #FFC998",
"wX c #FFD48F",
"eX c #FFE197",
"rX c #FFC6A9",
"tX c #FFD7A8",
"yX c #FFC2B6",
"uX c #FFD7B3",
"iX c #FFEAB8",
"pX c #FFF2BA",
"aX c #FFEAAD",
"sX c #FFB9CF",
"dX c #FFCBCB",
"fX c #FFFAD8",
"gX c #FFF0CE",
"hX c #FFD3F1",
"jX c #FFFDE8",
"kX c #FFE8F9",
"lX c #FFFFFF",
"zX c #FFFAF9",
"xX c #FFEAE9",
"cX c None",
/* pixels */
"cXcXcXcXcXcXcXcXcXcXcXcXcXcXcXcXcXcXcXcXcXcXcXcXcXcXcXcXcXcXcXcXcXcXcXcXcXcXcXcXcXcXcXcXcXcXcXcXcXcXcXcXcXcXcXcXcXcXcXcXcXcXcXcX",
"cXcXcXcXcXcXcXcXcXcXcXcXcXcXcXcXcXcXcXcXcXcXcXcXcXcXcXcXcXcXcXcXcXcXcXcXcXcXcXcXcXcXcXcXcXcXcXcXcXcXcXcXcXcXcXcXcXcXcXcXcXcXcXcX",
"cXcXcXcXcXcXcXcXcXcXcXcXcXcXcXcXcXcXcXcXcXcXcXcXcXcXcXcXcXcXcXcXcXcXcXcXcXcXcXcXcXcXcXcXcXcXcXcXcXcXcXcXcXcXcXcXcXcXcXcXcXcXcXcX",
"cXcXcXcXcXcXcXcXcXcXcXcXcXcXcXcXcXcXcXcXcXcXcXcXcXn.5XtXiXgXfXjXjXlXlXlXlXkXyXcXcXcXcXcXcXcXcXcXcXcXcXcXcXcXcXcXcXcXcXcXcXcXcXcX",
"cXcXcXcXcXcXcXcXcXcXcXcXcXcXcXcXcXcXcXcXcXcXC.eXpXpXuX5XC.M.f.f.f.C.4XrXkXzXlXlXlXkXcXcXcXcXcXcXcXcXcXcXcXcXcXcXcXcXcXcXcXcXcXcX",
"cXcXcXcXcXcXcXcXcXcXcXcXcXcXcXcXcXcXcXcX0XaXiX5Xd.) | E P  .m N N  .+.) w.w.g.rXlXlXlXlX9XcXcXcXcXcXcXcXcXcXcXcXcXcXcXcXcXcXcXcX",
"cXcXcXcXcXcXcXcXcXcXcXcXcXcXcXcXcXcX0XpXtXb.^ E L b y u 6 t y D B p i [.C V #.,.e.j.xXlXlXlXcXcXcXcXcXcXcXcXcXcXcXcXcXcXcXcXcXcX",
"cXcXcXcXcXcXcXcXcXcXcXcXcXcXcXcXN.aXuXd.^ P b y t t y u u u p S V R.R.+XZ.(.@XD [.&.s.j.jXlXlXlXcXcXcXcXcXcXcXcXcXcXcXcXcXcXcXcX",
"cXcXcXcXcXcXcXcXcXcXcXcXcXcXcXwXpXC.W P b y M p u u u p p p p R.p R.R.(.Q.E.#XS ).E./.$.k.c.lXlXlXcXcXcXcXcXcXcXcXcXcXcXcXcXcXcX",
"cXcXcXcXcXcXcXcXcXcXcXcXcXcXaXuX<.E b y y a A u u p p p R.R.R.).).p (.R.E.E.E.E.E.E..X1X}.6.z.uXlXlX9XcXcXcXcXcXcXcXcXcXcXcXcXcX",
"cXcXcXcXcXcXcXcXcXcXcXcXcXpXrX^ P e V @.u u p u T.R.R.R.R.E.D $.&.&.&.D (._.!.!.).).`.@X4X;X@Xs.B.lXlXdXcXcXcXcXcXcXcXcXcXcXcXcX",
"cXcXcXcXcXcXcXcXcXcXcXf.pX6X^ m s @.@.y u p R.).R.R.E.E.R./.t.i.k.h.z.h.Q.!.!.).).).).).`.1X3X{.2.h.lXlXrXcXcXcXcXcXcXcXcXcXcXcX",
"cXcXcXcXcXcXcXcXcXcXcXaX5XE M z X.F p u R.R.R.E.E.E.E.E.E./.k.-./.`.;.z.z ).).).).).!.!.'.`.|.}.|.5.i.zXlXC.cXcXcXcXcXcXcXcXcXcX",
"cXcXcXcXcXcXcXcXcXcXtXqX^ n s >.C u p (.R.R.E.E.E.).(.(.`.`.l.-.)._.;.S.C  XXX XXX X X.X`.~.!.XXm.{.:.e.lXlXcXcXcXcXcXcXcXcXcXcX",
"cXcXcXcXcXcXcXcXcX0XtX^ m V  .Q.p p R.R.R.E.E.(.{.&X7.n.N.v.G.-.).).;.F.J.J.J.I.K.I.K.H.D ~.!.E./.M.[.@.s.lXzXcXcXcXcXcXcXcXcXcX",
"cXcXcXcXcXcXcXcXN.aX[ P t s V p p R.R.E.E.(.XX8.j.z.x.M.m.;.-XXX).).XX-X=X=X-X=X-X=X>XF.#.~.!.!.Q.|.8.z _ f.lX0XcXcXcXcXcXcXcXcX",
"cXcXcXcXcXcXcXcXeXn.E s @.s u p R.).).)./.;.z.x.;.XX_._._._.).'.'._.'.).'.'._._.'.'.XXD.A !.!.E.R.R.#X5.V ( 6XzXcXcXcXcXcXcXcXcX",
"cXcXcXcXcXcXcXZ.wXE b Z X.y p p R.p ).(.f.p.;.(.'.)._._.`.].].].)._.'.].].].]._.'.'.oXD.#.E.!.E.E.R.p :.C M ( fXwXcXcXcXcXcXcXcX",
"cXcXcXcXcXcX9.eXa.L s @.p u p p R.).Q.f.j.@X_.)._.`..X%X>X1X1X#X'.'.#X2X2X2X2X$X_.).XXD.#.!.E.E.).u p a >.u P g.gXq.cXcXcXcXcXcX",
"cXcXcXcXcXcXN.5XJ b X.k y p p ).).).:.p.@X_._._.XX,XI.P.I.Z.Y.=X'.'.:XY.Z.Z.Y.#X'.'.XXA.#.W.E.E.p ).p u u y g J wXB.cXcXcXcXcXcX",
"cXcXcXcXcX5.0Xa.o q z u u u t ).W.}.i.;._._.`.$XZ.K.m.S V }.K.:X'.'.>XL.V +XF.;X!.'.XXA.#.(.E.E.R.i u u t y w P a.eXcXcXcXcXcXcX",
"cXcXcXcXcXn.I.| b q t t u i p i W.:.i./.)._. XV.V.C R._.'. XK.:X].'.>XL.[.OXF.&X'.!.XXz.A W.E.R.R.i u u t Z M b Y wXt.cXcXcXcXcX",
"cXcXcXcXcXB.g.U 8 q t u u i R.).Q.s.7.).).`.m.L.z ).'.'.'. XK.>X'.'.>XL.}.OXP.&X).).XXz.A E.E.R.R.i u u 6 q q 8 U g.c.cXcXcXcXcX",
"cXcXcXcX5.U.[ m k k t t u u i u {.u.#X).)..Xc.8.!.'.'.'.'. XK.:X].`.>XL.[.OXF.&X).).XXp.A E.E.R.R.u u 6 q q q 8 X [ U.! cXcXcXcX",
"cXcXcXcXd.K.Y g B B 6 6 u u ).).S u.}.!._.$XG.F ~.'.'.'.'. XI.:X'.].>XS.}.OXF.&X_.!..Xp.A E.R.R.p u u t q 8 8 8 g Y J.q.cXcXcXcX",
"cXcXcXcXg.N.J w w w t t u u u p D i.{.!._.&XG.C ~.'.'.'.'. XK.:X'.'.>XL.[.OXG.#X_.)..Xu.A R.R.R.p u t t q 8 8 8 > J N.t.cXcXcXcX",
"cXcXcXcXx.f.K e ) q 6 t t u t ).F e.{.!.~.&XD.x '.'.'.'.'. XK.:X'.'.>XS.[.oXG.#X_.E.{.u.M R.R.T.p t t 6 q 8 8 3 3 K s.j.cXcXcXcX",
"cXcXcXcXc.r.o w B q q t t u u p C y.{.E.~.+XG.F '.'.'.'.'. XK.>X'.'.>XS.[.oXA.#X).E.{.y.M R.T.u u t 6 q q 8 8 8 3 o { c.cXcXcXcX",
"cXcXcX-XB.] X 3 8 8 q 6 t u u p [.y.D E.E.`.c.7.).'.'.'.'. XK.:X'.'.6.S.V oXA.#X).E./.e.b p p u u t q q q 8 3 3 7 X ] S.! cXcXcX",
"cXcXcX=.B._ n 7 8 8 q 6 t t u p p a.:.(.E._.m.S.|.'.'.'.'. XJ.:X'.'.:Xv.^.oXp.D E.R.s e.b u u u t q q q 8 8 3 7 7 f / S.! cXcXcX",
"cXcXcX5.J.^ f l < 8 8 q 6 t u u p *.t./.E.!..XV.Z.|.].'._. XK.:X].].=Xv.^.XXp.@XE.R.R.e.b u u t t q q q 7 7 7 0 g f ^ B.! cXcXcX",
"cXcXcX5.K./ f g < q 8 8 q t t u i z e.*.(.).!.oXZ.K.1X%X XoXK.:X'.'.6.v.}.|.p.S R.i a w.b t u t q q 8 8 8 7 7 , g v ^ S.! cXcXcX",
"cXcXcX=.K._ v 7 3 7 8 8 4 t t u u u O.i.#XW.W._..X,XJ.Y.I.5XY.=X).'.;.F.n.n.p.S T.u p w.g r t q q q 3 8 7 7 3 3 7 v ^ S.! cXcXcX",
"cXcXcX-.U.{ X 3 7 8 3 8 q t t t u u (.2.h.#X(.~.!.~.`.%X:X1X2X#X'.).@Xb.m.2.7.z p u y w.g r t q q 8 q 3 3 3 3 3 = X / v.! cXcXcX",
"cXcXcX*XI.a.o q 8 3 7 q q t t t u u p p 3.v.6.{.~.~.).).).).'._.).'.).).R.).i i u t t q.j t q q 8 8 3 3 = 7 7 7 = o { v.cXcXcXcX",
"cXcXcXcXI.g.K 3 3 8 4 8 4 q t t u u p i a *.c.V.6.W.E.)._._._._.).).).).(.R.p y t t t ( j q q q 8 7 3 7 7 = 7 W , K r.z.cXcXcXcX",
"cXcXcXcXC.5XE > 3 3 8 8 q q 6 t t u u u T.Q.S H.M.W.E.W.&X<X:X+X).(.|.-.-.&.#.s 6 6 q ( : 8 q 8 3 7 3 3 3 = 7 < 7 G s.t.cXcXcXcX",
"cXcXcXcXM.iX^ g 7 8 8 8 4 q t t t u u u p Q.b.v.z R.W.|.I.U.Y.;.E.W.-.D.h.i.u.B 8 4 7 ( : q 3 8 7 3 3 3 = 3 7 > j U v.q.cXcXcXcX",
"cXcXcXcX0.jXa.m 7 7 4 8 q 8 q t q u t i a &.c.F i T.^.M.V.B H.6.E.E.=.l.k z y.l 4 2 3 ( : 8 8 3 3 3 3 = 3 = b d X ^ S.! cXcXcXcX",
"cXcXcXcX*XfX6X^ w q 7 8 4 q 6 6 6 t u u C l.7.t t y 6.P.Z z B.;.R.R.=.j.s V y.l 5 2 = ( : 3 7 3 3 3 3 = = = * = K 1.l.cXcXcXcXcX",
"cXcXcXcXcX9XlX' b $.b 8 8 8 q t t t y s g.g.9 8 r Z K.>.y ^.c.=.p i *.j.s z y.l & @ 2 ( : 7 7 7 3 3 = = = = = ; G x.e.cXcXcXcXcX",
"cXcXcXcXcX<XlX4X) 0 w 4 4 q 4 t q t y 5.j.k 5 4 e N.n.w R.^.c.=.u u *.j.e z y.h # 5 # ( ; 3 3 = = = = = * = = o / c.! cXcXcXcXcX",
"cXcXcXcXcXcXlXlXw.b w 9 q 8 q 6 q y Z l...5 5 9 2.B.k r T.Q.v.%.t t O.j.e z e.h # @ # ( ; 3 3 = = = = = < o , G g.i.cXcXcXcXcXcX",
"cXcXcXcXcXcX8XlX7X,.e 8.w q 8 8 t e x.<.* # 5 ..c...8 u u Q.v.%.6 8 O.j.0 z y.h @ @ # ` : = 3 = = = = > o = o ) S.~ cXcXcXcXcXcX",
"cXcXcXcXcXcX*XlXlXs...Z =.w 8 8 w 2.f.> # 5 j x.4.7 r r r s x.O.5 4 O.h.0 z y.h @ @ + ( j * = = * = = n f : G g.h.cXcXcXcXcXcXcX",
"cXcXcXcXcXcXcX8XzXkXs.l m.b y y X.j.c # % > a.f.> 4 r r r s v.X.5 5 X.k.0 k e.d # @ + } ; * * = * * < L > K [ B.! cXcXcXcXcXcXcX",
"cXcXcXcXcXcXcXcXzXzX5X1.k 0.k l x.g.1.1.3.1.h.d 3 4 4 4 6 w j.o.5 5 X.k., e t.[ ) R T ~ ; * = * * * * > X Y V.e.cXcXcXcXcXcXcXcX",
"cXcXcXcXcXcXcXcX-XlXlXV.@.B b...<.,.,.4.4.4.m * 4 5 4 4 r 0 s.o.@ # o.s.> 9 >.) R T T I 1 - % * * P >   Y x.v.Q cXcXcXcXcXcXcXcX",
"cXcXcXcXcXcXcXcXcX8XlXlXx.O.e 8.0 * = = = * * 2 3 5 5 5 5 9 t.o.# @ o.t.> 5 2 & * $ % $ % $ % > P - d G f.H.! cXcXcXcXcXcXcXcXcX",
"cXcXcXcXcXcXcXcXcXcXsXlXlXx.X.l 0 k 7 3 2 2 2 2 2 2 2 2 * 9 t.1.>.4.1.t.> & 2 5 = * * * * % , +., d G f.U.' cXcXcXcXcXcXcXcXcXcX",
"cXcXcXcXcXcXcXcXcXcXcXhXlXlXx.@.0 9.=.9 2 2 & 2 & 2 & & & 2 +.] ] [ [ R + & 5 @ $ $ $ % % m T %   J f.U.w.cXcXcXcXcXcXcXcXcXcXcX",
"cXcXcXcXcXcXcXcXcXcXcXcXhXlXlXx.,.k ..>.g 2 & & & & & & $ % % % @ + + @ $ $ @ @ $ $ % * T h 1 o E n.wXr.cXcXcXcXcXcXcXcXcXcXcXcX",
"cXcXcXcXcXcXcXcXcXcXcXcXcXsXzXlXC.r.c , >.% & & $ $ @ $ $ @ @ @ @ @ @ @ @ @ @ @ $ d % - 1 ; U ) 5XwXw.cXcXcXcXcXcXcXcXcXcXcXcXcX",
"cXcXcXcXcXcXcXcXcXcXcXcXcXcX3XlXlXdXw.) < * & $ h , # # # @ @ @ @ @ @ @ @ @ @ O $ o.$ 1 o ^ b.tX0X~ cXcXcXcXcXcXcXcXcXcXcXcXcXcX",
"cXcXcXcXcXcXcXcXcXcXcXcXcXcXcX=.kXlXlXM.' T : % n 1 , W % @ O , 1 O O O O O O O + ; I | 2.rXpXN.Q cXcXcXcXcXcXcXcXcXcXcXcXcXcXcX",
"cXcXcXcXcXcXcXcXcXcXcXcXcXcXcXcX#.1XlXlXkXn.' E X ; - ; + O O n ; O O O O + ; X E ` d.yXfXwX{ cXcXcXcXcXcXcXcXcXcXcXcXcXcXcXcXcX",
"cXcXcXcXcXcXcXcXcXcXcXcXcXcXcXcXcXcXX.2XxXlXkX7X2./ ^ K o X         X I Y ( { 3.7XxXzXtXa.H cXcXcXcXcXcXcXcXcXcXcXcXcXcXcXcXcXcX",
"cXcXcXcXcXcXcXcXcXcXcXcXcXcXcXcXcXcXcXcXX.9.6XgXfXgX9X4Xd.3.<.,.<.3.d.M.7XdXzXlXfX5X1.Q cXcXcXcXcXcXcXcXcXcXcXcXcXcXcXcXcXcXcXcX",
"cXcXcXcXcXcXcXcXcXcXcXcXcXcXcXcXcXcXcXcXcXcXN +.2.M.5XtXiXgXfXfXfXjXjXjXgXrXC.1.^ cXcXcXcXcXcXcXcXcXcXcXcXcXcXcXcXcXcXcXcXcXcXcX",
"cXcXcXcXcXcXcXcXcXcXcXcXcXcXcXcXcXcXcXcXcXcXcXcXcXcX .P R 4.<.3.3.1.] R R U cXcXcXcXcXcXcXcXcXcXcXcXcXcXcXcXcXcXcXcXcXcXcXcXcXcX",
"cXcXcXcXcXcXcXcXcXcXcXcXcXcXcXcXcXcXcXcXcXcXcXcXcXcXcXcXcXcXcXcXcXcXcXcXcXcXcXcXcXcXcXcXcXcXcXcXcXcXcXcXcXcXcXcXcXcXcXcXcXcXcXcX",
"cXcXcXcXcXcXcXcXcXcXcXcXcXcXcXcXcXcXcXcXcXcXcXcXcXcXcXcXcXcXcXcXcXcXcXcXcXcXcXcXcXcXcXcXcXcXcXcXcXcXcXcXcXcXcXcXcXcXcXcXcXcXcXcX",
"cXcXcXcXcXcXcXcXcXcXcXcXcXcXcXcXcXcXcXcXcXcXcXcXcXcXcXcXcXcXcXcXcXcXcXcXcXcXcXcXcXcXcXcXcXcXcXcXcXcXcXcXcXcXcXcXcXcXcXcXcXcXcXcX",
"cXcXcXcXcXcXcXcXcXcXcXcXcXcXcXcXcXcXcXcXcXcXcXcXcXcXcXcXcXcXcXcXcXcXcXcXcXcXcXcXcXcXcXcXcXcXcXcXcXcXcXcXcXcXcXcXcXcXcXcXcXcXcXcX"
};
